<mxfile host="app.diagrams.net" agent="Mozilla/5.0 (Windows NT 10.0; Win64; x64) AppleWebKit/537.36 (KHTML, like Gecko) Chrome/129.0.0.0 Safari/537.36" version="24.7.13">
  <diagram name="Page-1" id="VyWJka_0wnMVkO_Dsxcv">
    <mxGraphModel dx="1366" dy="779" grid="1" gridSize="10" guides="1" tooltips="1" connect="1" arrows="1" fold="1" page="1" pageScale="1" pageWidth="827" pageHeight="1169" math="0" shadow="0">
      <root>
        <mxCell id="0" />
        <mxCell id="1" parent="0" />
        <mxCell id="HQD5_0xao5jlp4zpZc_x-1" value="Start PLN Service" style="whiteSpace=wrap;strokeWidth=2;" vertex="1" parent="1">
          <mxGeometry x="443" y="20" width="107" height="34" as="geometry" />
        </mxCell>
        <mxCell id="HQD5_0xao5jlp4zpZc_x-2" value="Initialize Helpers &amp; Utilities" style="whiteSpace=wrap;strokeWidth=2;" vertex="1" parent="1">
          <mxGeometry x="389" y="104" width="215" height="34" as="geometry" />
        </mxCell>
        <mxCell id="HQD5_0xao5jlp4zpZc_x-3" value="Report Generating Times Available?" style="rhombus;strokeWidth=2;whiteSpace=wrap;" vertex="1" parent="1">
          <mxGeometry x="345" y="188" width="302" height="302" as="geometry" />
        </mxCell>
        <mxCell id="HQD5_0xao5jlp4zpZc_x-4" value="Log Error: No Report Time Defined" style="whiteSpace=wrap;strokeWidth=2;" vertex="1" parent="1">
          <mxGeometry x="230" y="559" width="262" height="34" as="geometry" />
        </mxCell>
        <mxCell id="HQD5_0xao5jlp4zpZc_x-5" value="Start Background Tasks" style="whiteSpace=wrap;strokeWidth=2;" vertex="1" parent="1">
          <mxGeometry x="542" y="559" width="179" height="34" as="geometry" />
        </mxCell>
        <mxCell id="HQD5_0xao5jlp4zpZc_x-6" value="MainRoute Loop" style="whiteSpace=wrap;strokeWidth=2;" vertex="1" parent="1">
          <mxGeometry x="567" y="643" width="129" height="34" as="geometry" />
        </mxCell>
        <mxCell id="HQD5_0xao5jlp4zpZc_x-7" value="Time for Next Report?" style="rhombus;strokeWidth=2;whiteSpace=wrap;" vertex="1" parent="1">
          <mxGeometry x="244" y="746" width="207" height="207" as="geometry" />
        </mxCell>
        <mxCell id="HQD5_0xao5jlp4zpZc_x-8" value="Wait for Next Run Time" style="whiteSpace=wrap;strokeWidth=2;" vertex="1" parent="1">
          <mxGeometry x="20" y="1022" width="183" height="34" as="geometry" />
        </mxCell>
        <mxCell id="HQD5_0xao5jlp4zpZc_x-9" value="Check Last Price Update" style="whiteSpace=wrap;strokeWidth=2;" vertex="1" parent="1">
          <mxGeometry x="253" y="1022" width="189" height="34" as="geometry" />
        </mxCell>
        <mxCell id="HQD5_0xao5jlp4zpZc_x-10" value="Last Update &gt; 15 Minutes Ago?" style="rhombus;strokeWidth=2;whiteSpace=wrap;" vertex="1" parent="1">
          <mxGeometry x="215" y="1106" width="265" height="265" as="geometry" />
        </mxCell>
        <mxCell id="HQD5_0xao5jlp4zpZc_x-11" value="Log: Market Closed, No Report" style="whiteSpace=wrap;strokeWidth=2;" vertex="1" parent="1">
          <mxGeometry x="112" y="1440" width="234" height="34" as="geometry" />
        </mxCell>
        <mxCell id="HQD5_0xao5jlp4zpZc_x-12" value="PnLReportProcess" style="whiteSpace=wrap;strokeWidth=2;" vertex="1" parent="1">
          <mxGeometry x="399" y="1440" width="141" height="34" as="geometry" />
        </mxCell>
        <mxCell id="HQD5_0xao5jlp4zpZc_x-13" value="Fetch Market Data &amp; Filters" style="whiteSpace=wrap;strokeWidth=2;" vertex="1" parent="1">
          <mxGeometry x="363" y="1524" width="214" height="34" as="geometry" />
        </mxCell>
        <mxCell id="HQD5_0xao5jlp4zpZc_x-14" value="Calculate MT4 &amp; MT5 Yesterday&#39;s PnL" style="whiteSpace=wrap;strokeWidth=2;" vertex="1" parent="1">
          <mxGeometry x="330" y="1608" width="281" height="34" as="geometry" />
        </mxCell>
        <mxCell id="HQD5_0xao5jlp4zpZc_x-15" value="Generate PnL Reports" style="whiteSpace=wrap;strokeWidth=2;" vertex="1" parent="1">
          <mxGeometry x="385" y="1692" width="171" height="34" as="geometry" />
        </mxCell>
        <mxCell id="HQD5_0xao5jlp4zpZc_x-16" value="Prepare Email" style="whiteSpace=wrap;strokeWidth=2;" vertex="1" parent="1">
          <mxGeometry x="413" y="1776" width="115" height="34" as="geometry" />
        </mxCell>
        <mxCell id="HQD5_0xao5jlp4zpZc_x-17" value="Send Email" style="whiteSpace=wrap;strokeWidth=2;" vertex="1" parent="1">
          <mxGeometry x="721" y="1860" width="94" height="34" as="geometry" />
        </mxCell>
        <mxCell id="HQD5_0xao5jlp4zpZc_x-18" value="Is Cancel Requested?" style="rhombus;strokeWidth=2;whiteSpace=wrap;" vertex="1" parent="1">
          <mxGeometry x="533" y="750" width="198" height="198" as="geometry" />
        </mxCell>
        <mxCell id="HQD5_0xao5jlp4zpZc_x-19" value="Stop Service" style="whiteSpace=wrap;strokeWidth=2;" vertex="1" parent="1">
          <mxGeometry x="580" y="1022" width="103" height="34" as="geometry" />
        </mxCell>
        <mxCell id="HQD5_0xao5jlp4zpZc_x-20" value="Stop Heartbeat &amp; Cleanup" style="whiteSpace=wrap;strokeWidth=2;" vertex="1" parent="1">
          <mxGeometry x="530" y="1221" width="203" height="34" as="geometry" />
        </mxCell>
        <mxCell id="HQD5_0xao5jlp4zpZc_x-21" value="" style="curved=1;startArrow=none;endArrow=block;exitX=0.5;exitY=1;entryX=0.5;entryY=0;rounded=0;" edge="1" parent="1" source="HQD5_0xao5jlp4zpZc_x-1" target="HQD5_0xao5jlp4zpZc_x-2">
          <mxGeometry relative="1" as="geometry">
            <Array as="points" />
          </mxGeometry>
        </mxCell>
        <mxCell id="HQD5_0xao5jlp4zpZc_x-22" value="" style="curved=1;startArrow=none;endArrow=block;exitX=0.5;exitY=1;entryX=0.5;entryY=0;rounded=0;" edge="1" parent="1" source="HQD5_0xao5jlp4zpZc_x-2" target="HQD5_0xao5jlp4zpZc_x-3">
          <mxGeometry relative="1" as="geometry">
            <Array as="points" />
          </mxGeometry>
        </mxCell>
        <mxCell id="HQD5_0xao5jlp4zpZc_x-23" value="No" style="curved=1;startArrow=none;endArrow=block;exitX=0.14;exitY=1;entryX=0.5;entryY=-0.01;rounded=0;" edge="1" parent="1" source="HQD5_0xao5jlp4zpZc_x-3" target="HQD5_0xao5jlp4zpZc_x-4">
          <mxGeometry relative="1" as="geometry">
            <Array as="points">
              <mxPoint x="361" y="524" />
            </Array>
          </mxGeometry>
        </mxCell>
        <mxCell id="HQD5_0xao5jlp4zpZc_x-24" value="Yes" style="curved=1;startArrow=none;endArrow=block;exitX=0.87;exitY=1;entryX=0.5;entryY=-0.01;rounded=0;" edge="1" parent="1" source="HQD5_0xao5jlp4zpZc_x-3" target="HQD5_0xao5jlp4zpZc_x-5">
          <mxGeometry relative="1" as="geometry">
            <Array as="points">
              <mxPoint x="632" y="524" />
            </Array>
          </mxGeometry>
        </mxCell>
        <mxCell id="HQD5_0xao5jlp4zpZc_x-25" value="" style="curved=1;startArrow=none;endArrow=block;exitX=0.5;exitY=0.99;entryX=0.5;entryY=-0.01;rounded=0;" edge="1" parent="1" source="HQD5_0xao5jlp4zpZc_x-5" target="HQD5_0xao5jlp4zpZc_x-6">
          <mxGeometry relative="1" as="geometry">
            <Array as="points" />
          </mxGeometry>
        </mxCell>
        <mxCell id="HQD5_0xao5jlp4zpZc_x-26" value="" style="curved=1;startArrow=none;endArrow=block;exitX=0;exitY=0.83;entryX=0.5;entryY=0;rounded=0;" edge="1" parent="1" source="HQD5_0xao5jlp4zpZc_x-6" target="HQD5_0xao5jlp4zpZc_x-7">
          <mxGeometry relative="1" as="geometry">
            <Array as="points">
              <mxPoint x="348" y="711" />
            </Array>
          </mxGeometry>
        </mxCell>
        <mxCell id="HQD5_0xao5jlp4zpZc_x-27" value="No" style="curved=1;startArrow=none;endArrow=block;exitX=0;exitY=0.79;entryX=0.5;entryY=-0.01;rounded=0;" edge="1" parent="1" source="HQD5_0xao5jlp4zpZc_x-7" target="HQD5_0xao5jlp4zpZc_x-8">
          <mxGeometry relative="1" as="geometry">
            <Array as="points">
              <mxPoint x="111" y="987" />
            </Array>
          </mxGeometry>
        </mxCell>
        <mxCell id="HQD5_0xao5jlp4zpZc_x-28" value="Yes" style="curved=1;startArrow=none;endArrow=block;exitX=0.5;exitY=1;entryX=0.5;entryY=-0.01;rounded=0;" edge="1" parent="1" source="HQD5_0xao5jlp4zpZc_x-7" target="HQD5_0xao5jlp4zpZc_x-9">
          <mxGeometry relative="1" as="geometry">
            <Array as="points" />
          </mxGeometry>
        </mxCell>
        <mxCell id="HQD5_0xao5jlp4zpZc_x-29" value="" style="curved=1;startArrow=none;endArrow=block;exitX=0.5;exitY=0.99;entryX=0.5;entryY=0;rounded=0;" edge="1" parent="1" source="HQD5_0xao5jlp4zpZc_x-9" target="HQD5_0xao5jlp4zpZc_x-10">
          <mxGeometry relative="1" as="geometry">
            <Array as="points" />
          </mxGeometry>
        </mxCell>
        <mxCell id="HQD5_0xao5jlp4zpZc_x-30" value="Yes" style="curved=1;startArrow=none;endArrow=block;exitX=0.14;exitY=1;entryX=0.5;entryY=0;rounded=0;" edge="1" parent="1" source="HQD5_0xao5jlp4zpZc_x-10" target="HQD5_0xao5jlp4zpZc_x-11">
          <mxGeometry relative="1" as="geometry">
            <Array as="points">
              <mxPoint x="229" y="1406" />
            </Array>
          </mxGeometry>
        </mxCell>
        <mxCell id="HQD5_0xao5jlp4zpZc_x-31" value="No" style="curved=1;startArrow=none;endArrow=block;exitX=0.87;exitY=1;entryX=0.5;entryY=0;rounded=0;" edge="1" parent="1" source="HQD5_0xao5jlp4zpZc_x-10" target="HQD5_0xao5jlp4zpZc_x-12">
          <mxGeometry relative="1" as="geometry">
            <Array as="points">
              <mxPoint x="470" y="1406" />
            </Array>
          </mxGeometry>
        </mxCell>
        <mxCell id="HQD5_0xao5jlp4zpZc_x-32" value="" style="curved=1;startArrow=none;endArrow=block;exitX=0.5;exitY=1;entryX=0.5;entryY=0;rounded=0;" edge="1" parent="1" source="HQD5_0xao5jlp4zpZc_x-12" target="HQD5_0xao5jlp4zpZc_x-13">
          <mxGeometry relative="1" as="geometry">
            <Array as="points" />
          </mxGeometry>
        </mxCell>
        <mxCell id="HQD5_0xao5jlp4zpZc_x-33" value="" style="curved=1;startArrow=none;endArrow=block;exitX=0.5;exitY=1;entryX=0.5;entryY=0;rounded=0;" edge="1" parent="1" source="HQD5_0xao5jlp4zpZc_x-13" target="HQD5_0xao5jlp4zpZc_x-14">
          <mxGeometry relative="1" as="geometry">
            <Array as="points" />
          </mxGeometry>
        </mxCell>
        <mxCell id="HQD5_0xao5jlp4zpZc_x-34" value="" style="curved=1;startArrow=none;endArrow=block;exitX=0.5;exitY=1;entryX=0.5;entryY=0;rounded=0;" edge="1" parent="1" source="HQD5_0xao5jlp4zpZc_x-14" target="HQD5_0xao5jlp4zpZc_x-15">
          <mxGeometry relative="1" as="geometry">
            <Array as="points" />
          </mxGeometry>
        </mxCell>
        <mxCell id="HQD5_0xao5jlp4zpZc_x-35" value="" style="curved=1;startArrow=none;endArrow=block;exitX=0.5;exitY=1;entryX=0.5;entryY=0;rounded=0;" edge="1" parent="1" source="HQD5_0xao5jlp4zpZc_x-15" target="HQD5_0xao5jlp4zpZc_x-16">
          <mxGeometry relative="1" as="geometry">
            <Array as="points" />
          </mxGeometry>
        </mxCell>
        <mxCell id="HQD5_0xao5jlp4zpZc_x-36" value="" style="curved=1;startArrow=none;endArrow=block;exitX=0.5;exitY=1;entryX=0;entryY=0.31;rounded=0;" edge="1" parent="1" source="HQD5_0xao5jlp4zpZc_x-16" target="HQD5_0xao5jlp4zpZc_x-17">
          <mxGeometry relative="1" as="geometry">
            <Array as="points">
              <mxPoint x="470" y="1835" />
            </Array>
          </mxGeometry>
        </mxCell>
        <mxCell id="HQD5_0xao5jlp4zpZc_x-37" value="" style="curved=1;startArrow=none;endArrow=block;exitX=0.5;exitY=0;entryX=0.85;entryY=0.99;rounded=0;" edge="1" parent="1" source="HQD5_0xao5jlp4zpZc_x-17" target="HQD5_0xao5jlp4zpZc_x-6">
          <mxGeometry relative="1" as="geometry">
            <Array as="points">
              <mxPoint x="768" y="711" />
            </Array>
          </mxGeometry>
        </mxCell>
        <mxCell id="HQD5_0xao5jlp4zpZc_x-38" value="" style="curved=1;startArrow=none;endArrow=block;exitX=0.16;exitY=0.99;entryX=0.02;entryY=0;rounded=0;" edge="1" parent="1" source="HQD5_0xao5jlp4zpZc_x-6" target="HQD5_0xao5jlp4zpZc_x-18">
          <mxGeometry relative="1" as="geometry">
            <Array as="points">
              <mxPoint x="500" y="711" />
            </Array>
          </mxGeometry>
        </mxCell>
        <mxCell id="HQD5_0xao5jlp4zpZc_x-39" value="Yes" style="curved=1;startArrow=none;endArrow=block;exitX=0.5;exitY=1;entryX=0.5;entryY=-0.01;rounded=0;" edge="1" parent="1" source="HQD5_0xao5jlp4zpZc_x-18" target="HQD5_0xao5jlp4zpZc_x-19">
          <mxGeometry relative="1" as="geometry">
            <Array as="points" />
          </mxGeometry>
        </mxCell>
        <mxCell id="HQD5_0xao5jlp4zpZc_x-40" value="No" style="curved=1;startArrow=none;endArrow=block;exitX=0.69;exitY=0;entryX=0.64;entryY=0.99;rounded=0;" edge="1" parent="1" source="HQD5_0xao5jlp4zpZc_x-18" target="HQD5_0xao5jlp4zpZc_x-6">
          <mxGeometry relative="1" as="geometry">
            <Array as="points">
              <mxPoint x="685" y="711" />
            </Array>
          </mxGeometry>
        </mxCell>
        <mxCell id="HQD5_0xao5jlp4zpZc_x-41" value="" style="curved=1;startArrow=none;endArrow=block;exitX=0.5;exitY=0.99;entryX=0.5;entryY=0.01;rounded=0;" edge="1" parent="1" source="HQD5_0xao5jlp4zpZc_x-19" target="HQD5_0xao5jlp4zpZc_x-20">
          <mxGeometry relative="1" as="geometry">
            <Array as="points" />
          </mxGeometry>
        </mxCell>
      </root>
    </mxGraphModel>
  </diagram>
</mxfile>
